<?xml version="1.0" encoding="UTF-8"?>
<svg width="100px" height="100px" viewBox="0 0 100 100" version="1.1" xmlns="http://www.w3.org/2000/svg" xmlns:xlink="http://www.w3.org/1999/xlink">
    <title>js-square-ico</title>
    <g id="js-square-ico" stroke="none" stroke-width="1" fill="none" fill-rule="evenodd" fill-opacity="0.984921329">
        <path d="M89.2857143,0 L10.7142857,0 C4.79910714,0 0,4.79910714 0,10.7142857 L0,89.2857143 C0,95.2008929 4.79910714,100 10.7142857,100 L89.2857143,100 C95.2008929,100 100,95.2008929 100,89.2857143 L100,10.7142857 C100,4.79910714 95.2008929,0 89.2857143,0 Z M40.0333069,92 C32.5503569,92 28.22046,88.1370656 26,83.4527027 L33.6161776,78.8571429 C35.0816812,81.4546332 36.4139572,83.6525097 39.6336241,83.6525097 C42.6978588,83.6525097 44.6518636,82.453668 44.6518636,77.769305 L44.6518636,46 L54,46 L54,77.9025097 C54,87.5820463 48.3156225,92 40.0333069,92 Z M93,46 L93,54.3474903 L81.6847835,54.3474903 L81.6847835,92 L72.0435074,92 L72.0435074,54.3474903 L61,54.3474903 L61,46 L93,46 Z" id="Shape" fill="#78A400" fill-rule="nonzero"></path>
    </g>
</svg>