<?xml version="1.0" encoding="UTF-8"?>
<svg width="45px" height="45px" viewBox="0 0 45 45" version="1.1" xmlns="http://www.w3.org/2000/svg" xmlns:xlink="http://www.w3.org/1999/xlink">
    <title>github-square-brands</title>
    <defs>
        <filter color-interpolation-filters="auto" id="filter-1">
            <feColorMatrix in="SourceGraphic" type="matrix" values="0 0 0 0 0.847000 0 0 0 0 0.847000 0 0 0 0 0.847000 0 0 0 1.000000 0"></feColorMatrix>
        </filter>
    </defs>
    <g id="Page-1" stroke="none" stroke-width="1" fill="none" fill-rule="evenodd">
        <g id="Portfolio-1440-v3-Projects" transform="translate(-1238.000000, -75.000000)">
            <g id="Contact-Copy" transform="translate(1238.000000, 40.000000)">
                <g id="github-square-brands" transform="translate(0.000000, 35.000000)" filter="url(#filter-1)">
                    <g>
                        <path d="M40.1785714,0 L4.82142857,0 C2.15959821,0 0,2.15959821 0,4.82142857 L0,40.1785714 C0,42.8404018 2.15959821,45 4.82142857,45 L40.1785714,45 C42.8404018,45 45,42.8404018 45,40.1785714 L45,4.82142857 C45,2.15959821 42.8404018,0 40.1785714,0 Z M27.8537946,38.5412946 C27.0100446,38.6919643 26.6986607,38.1696429 26.6986607,37.7377232 C26.6986607,37.1953125 26.71875,34.4229911 26.71875,32.1830357 C26.71875,30.6160714 26.1964286,29.6216518 25.5837054,29.0993304 C29.3002232,28.6875 33.2176339,28.1752232 33.2176339,21.7566964 C33.2176339,19.9285714 32.5647321,19.0145089 31.5,17.8392857 C31.6707589,17.4073661 32.2433036,15.6294643 31.3292411,13.3191964 C29.9330357,12.8872768 26.7388393,15.1171875 26.7388393,15.1171875 C25.4129464,14.7455357 23.9765625,14.5546875 22.5602679,14.5546875 C21.1439732,14.5546875 19.7075893,14.7455357 18.3816964,15.1171875 C18.3816964,15.1171875 15.1875,12.8872768 13.7912946,13.3191964 C12.8772321,15.6194196 13.4397321,17.3973214 13.6205357,17.8392857 C12.5558036,19.0145089 12.0535714,19.9285714 12.0535714,21.7566964 C12.0535714,28.1450893 15.8002232,28.6875 19.5167411,29.0993304 C19.0345982,29.53125 18.6026786,30.2745536 18.4520089,31.3392857 C17.4977679,31.7712054 15.0569196,32.5145089 13.6004464,29.9430804 C12.6863839,28.3560268 11.0390625,28.2254464 11.0390625,28.2254464 C9.41183036,28.2053571 10.9285714,29.25 10.9285714,29.25 C12.0133929,29.7522321 12.7767857,31.6808036 12.7767857,31.6808036 C13.7511161,34.6640625 18.4118304,33.6595982 18.4118304,33.6595982 C18.4118304,35.0558036 18.4319196,37.3258929 18.4319196,37.7377232 C18.4319196,38.1696429 18.1305804,38.6919643 17.2767857,38.5412946 C10.6473214,36.3214286 6.00669643,30.0133929 6.00669643,22.640625 C6.00669643,13.4196429 13.0580357,6.41852679 22.2790179,6.41852679 C31.5,6.41852679 38.9732311,13.4196429 38.9732311,22.640625 C38.9832589,30.0133929 34.4832589,36.3314732 27.8537946,38.5412946 Z M18,32.4040179 C17.8091518,32.4441964 17.6283482,32.3638393 17.6082589,32.2332589 C17.5881696,32.0825893 17.71875,31.9520089 17.9095982,31.9118304 C18.1004464,31.8917411 18.28125,31.9720982 18.3013393,32.1026786 C18.3314732,32.2332589 18.2008929,32.3638393 18,32.4040179 Z M17.0457589,32.3136161 C17.0457589,32.4441964 16.8950893,32.5546875 16.6941964,32.5546875 C16.4732143,32.5747768 16.3225446,32.4642857 16.3225446,32.3136161 C16.3225446,32.1830357 16.4732143,32.0725446 16.6741071,32.0725446 C16.8649554,32.0524554 17.0457589,32.1629464 17.0457589,32.3136161 Z M15.6696429,32.203125 C15.6294643,32.3337054 15.4285714,32.3939732 15.2578125,32.3337054 C15.0669643,32.2935268 14.9363839,32.1428571 14.9765625,32.0122768 C15.0167411,31.8816964 15.2176339,31.8214286 15.3883929,31.8616071 C15.5892857,31.921875 15.7198661,32.0725446 15.6696429,32.203125 Z M14.4341518,31.6607143 C14.34375,31.7712054 14.1529018,31.7511161 14.0022321,31.6004464 C13.8515625,31.4698661 13.8113839,31.2790179 13.9118304,31.1886161 C14.0022321,31.078125 14.1930804,31.0982143 14.34375,31.2488839 C14.4743304,31.3794643 14.5245536,31.5803571 14.4341518,31.6607143 Z M13.5200893,30.7466518 C13.4296875,30.8069196 13.2589286,30.7466518 13.1484375,30.5959821 C13.0379464,30.4453125 13.0379464,30.2745536 13.1484375,30.2042411 C13.2589286,30.1138393 13.4296875,30.1841518 13.5200893,30.3348214 C13.6305804,30.4854911 13.6305804,30.6662946 13.5200893,30.7466518 L13.5200893,30.7466518 Z M12.8671875,29.7723214 C12.7767857,29.8627232 12.6261161,29.8125 12.515625,29.7120536 C12.4051339,29.5814732 12.3850446,29.4308036 12.4754464,29.3604911 C12.5658482,29.2700893 12.7165179,29.3203125 12.8270089,29.4207589 C12.9375,29.5513393 12.9575893,29.7020089 12.8671875,29.7723214 Z M12.1941964,29.0290179 C12.1540179,29.1194196 12.0234375,29.1395089 11.9129464,29.0691964 C11.7823661,29.0089286 11.7220982,28.8984375 11.7622768,28.8080357 C11.8024554,28.7477679 11.9129464,28.7176339 12.0435268,28.7678571 C12.1741071,28.8381696 12.234375,28.9486607 12.1941964,29.0290179 Z" id="Shape" fill="#000000" fill-rule="nonzero"></path>
                    </g>
                </g>
            </g>
        </g>
    </g>
</svg>