<?xml version="1.0" encoding="UTF-8"?>
<svg width="45px" height="45px" viewBox="0 0 45 45" version="1.1" xmlns="http://www.w3.org/2000/svg" xmlns:xlink="http://www.w3.org/1999/xlink">
    <title>instagram-square-brands</title>
    <defs>
        <filter color-interpolation-filters="auto" id="filter-1">
            <feColorMatrix in="SourceGraphic" type="matrix" values="0 0 0 0 0.847000 0 0 0 0 0.847000 0 0 0 0 0.847000 0 0 0 1.000000 0"></feColorMatrix>
        </filter>
    </defs>
    <g id="Page-1" stroke="none" stroke-width="1" fill="none" fill-rule="evenodd">
        <g id="Portfolio-1440-v3-Projects" transform="translate(-1296.000000, -75.000000)">
            <g id="Contact-Copy" transform="translate(1238.000000, 40.000000)">
                <g id="instagram-square-brands" transform="translate(58.000000, 35.000000)" filter="url(#filter-1)">
                    <g>
                        <path d="M22.5,17.1421875 C19.5412236,17.1432969 17.1434571,19.5425623 17.1441964,22.5013388 C17.1449361,25.4601153 19.5439018,27.8581817 22.5026783,27.8578121 C25.4614549,27.8574424 27.8598214,25.4587766 27.8598214,22.5 C27.8576044,19.5410963 25.4589043,17.1432953 22.5,17.1421875 L22.5,17.1421875 Z M35.0266741,13.0238839 C34.475342,11.626673 33.3693091,10.5206402 31.9720982,9.96930804 C29.8627232,9.13660714 24.8404018,9.3234375 22.5,9.3234375 C20.1595982,9.3234375 15.1422991,9.12957589 13.0268973,9.96930804 C11.6296864,10.5206402 10.5236536,11.626673 9.97232143,13.0238839 C9.140625,15.1332589 9.32645089,20.1606027 9.32645089,22.4989955 C9.32645089,24.8373884 9.140625,29.8587054 9.97633929,31.9751116 C10.5276714,33.3723225 11.6337043,34.4783554 13.0309152,35.0296875 C15.1402902,35.8623884 20.1626116,35.675558 22.5040179,35.675558 C24.8454241,35.675558 29.8607143,35.8694196 31.9761161,35.0296875 C33.373327,34.4783554 34.4793598,33.3723225 35.030692,31.9751116 C35.8694196,29.8657366 35.6765625,24.8383929 35.6765625,22.5 C35.6765625,20.1616071 35.8694196,15.1412946 35.030692,13.0248884 L35.0266741,13.0238839 Z M22.5,30.7366133 C17.9510475,30.7366133 14.2633929,27.0489525 14.2633929,22.5 C14.2633929,17.9510475 17.9510475,14.2633929 22.5,14.2633929 C27.0489525,14.2633929 30.7366133,17.9510475 30.7366133,22.5 C30.739277,24.6853014 29.8723515,26.7818663 28.3271089,28.3271089 C26.7818663,29.8723515 24.6853014,30.739277 22.5,30.7366133 L22.5,30.7366133 Z M31.0761161,15.8404018 C30.2984281,15.8408081 29.5970903,15.3726528 29.2992004,14.6542794 C29.0013105,13.935906 29.1655473,13.1088205 29.7153121,12.5587683 C30.2650769,12.0087161 31.0920764,11.8440472 31.8106054,12.1415616 C32.5291344,12.439076 32.9976731,13.140169 32.9976731,13.9178571 C32.9997926,14.4278989 32.7987442,14.917798 32.4389362,15.2793023 C32.0791282,15.6408067 31.5901801,15.8441571 31.0801339,15.8444196 L31.0761161,15.8404018 Z M40.1785714,0 L4.82142857,0 C2.1586271,0 0,2.1586271 0,4.82142857 L0,40.1785714 C0,42.8413729 2.1586271,45 4.82142857,45 L40.1785714,45 C42.8413729,45 45,42.8413729 45,40.1785714 L45,4.82142857 C45,2.1586271 42.8413729,0 40.1785714,0 L40.1785714,0 Z M38.4589286,29.1294643 C38.3293527,31.7039062 37.7417411,33.9850446 35.8623884,35.859375 C33.9830357,37.7337054 31.7039063,38.3333705 29.1324777,38.4559152 C26.4796875,38.6055804 18.5263393,38.6055804 15.8735491,38.4559152 C13.2991071,38.3263393 11.0260045,37.7377232 9.14363839,35.859375 C7.26127232,33.9810268 6.66964286,31.6988839 6.54709821,29.1294643 C6.39743304,26.4756696 6.39743304,18.521317 6.54709821,15.8705357 C6.67667411,13.2960937 7.25725446,11.0149554 9.14363839,9.140625 C11.0300223,7.26629464 13.3091518,6.67366071 15.8735491,6.55111607 C18.5263393,6.40145089 26.4796875,6.40145089 29.1324777,6.55111607 C31.7069196,6.68069196 33.9870536,7.26930804 35.8623884,9.14765625 C37.7377232,11.0260045 38.3363839,13.3081473 38.4589286,15.8825893 C38.6085938,18.5263393 38.6085938,26.4736607 38.4589286,29.1294643 Z" id="Shape" fill="#000000" fill-rule="nonzero"></path>
                    </g>
                </g>
            </g>
        </g>
    </g>
</svg>