<?xml version="1.0" encoding="UTF-8"?>
<svg width="80px" height="80px" viewBox="0 0 80 80" version="1.1" xmlns="http://www.w3.org/2000/svg" xmlns:xlink="http://www.w3.org/1999/xlink">
    <title>js-square-brands</title>
    <defs>
        <filter color-interpolation-filters="auto" id="filter-1">
            <feColorMatrix in="SourceGraphic" type="matrix" values="0 0 0 0 0.847000 0 0 0 0 0.847000 0 0 0 0 0.847000 0 0 0 1.000000 0"></feColorMatrix>
        </filter>
    </defs>
    <g id="Page-1" stroke="none" stroke-width="1" fill="none" fill-rule="evenodd">
        <g id="Portfolio-1440-v3-Projects" transform="translate(-40.000000, -40.000000)">
            <g id="js-square-brands" transform="translate(40.000000, 40.000000)" filter="url(#filter-1)">
                <g>
                    <path d="M71.4285714,0 L8.57142857,0 C3.83928571,0 0,3.83928571 0,8.57142857 L0,71.4285714 C0,76.1607143 3.83928571,80 8.57142857,80 L71.4285714,80 C76.1607143,80 80,76.1607143 80,71.4285714 L80,8.57142857 C80,3.83928571 76.1607143,0 71.4285714,0 Z M32.3035714,73.7321429 C26.2857143,73.7321429 22.8035714,70.625 21.0178571,66.8571429 L27.1428571,63.1607143 C28.3214286,65.25 29.3928571,67.0178571 31.9821429,67.0178571 C34.4464286,67.0178571 36.0178571,66.0535714 36.0178571,62.2857143 L36.0178571,36.7321429 L43.5357143,36.7321429 L43.5357143,62.3928571 C43.5357143,70.1785714 38.9642857,73.7321429 32.3035714,73.7321429 Z M67.4268271,36.7321429 C71.4129321,36.7321429 73.5926503,38.9702381 73.9659818,43.4464286 L65.1428571,43.4464286 C65.1428571,57.6524489 65.1428571,65.6856887 65.1428571,67.5461481 C65.1428571,71.8447665 62.6369048,73.9067648 57.625,73.7321429 L57.625,43.4464286 L49.0137426,43.4464286 L49.0137426,36.7321429 C57.3030274,36.7321429 63.4407222,36.7321429 67.4268271,36.7321429 Z" id="Shape" fill="#000000" fill-rule="nonzero"></path>
                </g>
            </g>
        </g>
    </g>
</svg>