<?xml version="1.0" encoding="UTF-8"?>
<svg width="45px" height="45px" viewBox="0 0 45 45" version="1.1" xmlns="http://www.w3.org/2000/svg" xmlns:xlink="http://www.w3.org/1999/xlink">
    <title>linkedin-brands</title>
    <defs>
        <filter color-interpolation-filters="auto" id="filter-1">
            <feColorMatrix in="SourceGraphic" type="matrix" values="0 0 0 0 0.847000 0 0 0 0 0.847000 0 0 0 0 0.847000 0 0 0 1.000000 0"></feColorMatrix>
        </filter>
    </defs>
    <g id="Page-1" stroke="none" stroke-width="1" fill="none" fill-rule="evenodd">
        <g id="Portfolio-1440-v3-Projects" transform="translate(-1355.000000, -75.000000)">
            <g id="Contact-Copy" transform="translate(1238.000000, 40.000000)">
                <g id="linkedin-brands" transform="translate(117.000000, 35.000000)" filter="url(#filter-1)">
                    <g>
                        <path d="M41.7857143,0 L3.20424107,0 C1.43638393,0 0,1.45647321 0,3.24441964 L0,41.7555804 C0,43.5435268 1.43638393,45 3.20424107,45 L41.7857143,45 C43.5535714,45 45,43.5435268 45,41.7555804 L45,3.24441964 C45,1.45647321 43.5535714,0 41.7857143,0 Z M13.6004464,38.5714286 L6.93080357,38.5714286 L6.93080357,17.0959821 L13.6104911,17.0959821 L13.6104911,38.5714286 L13.6004464,38.5714286 Z M10.265625,14.1629464 C8.12611607,14.1629464 6.3984375,12.4252232 6.3984375,10.2957589 C6.3984375,8.16629464 8.12611607,6.42857143 10.265625,6.42857143 C12.3950893,6.42857143 14.1328125,8.16629464 14.1328125,10.2957589 C14.1328125,12.4352679 12.4051339,14.1629464 10.265625,14.1629464 L10.265625,14.1629464 Z M38.6015625,38.5714286 L31.9319196,38.5714286 L31.9319196,28.125 C31.9319196,25.6339286 31.8816964,22.4296875 28.4665179,22.4296875 C24.9910714,22.4296875 24.4587054,25.1417411 24.4587054,27.9441964 L24.4587054,38.5714286 L17.7890625,38.5714286 L17.7890625,17.0959821 L24.1875,17.0959821 L24.1875,20.0290179 L24.2779018,20.0290179 C25.171875,18.3415179 27.3515625,16.5636161 30.5959821,16.5636161 C37.3459821,16.5636161 38.6015625,21.0133929 38.6015625,26.7991071 L38.6015625,38.5714286 L38.6015625,38.5714286 Z" id="Shape" fill="#000000" fill-rule="nonzero"></path>
                    </g>
                </g>
            </g>
        </g>
    </g>
</svg>