<?xml version="1.0" encoding="UTF-8"?>
<svg width="233px" height="51px" viewBox="0 0 233 51" version="1.1" xmlns="http://www.w3.org/2000/svg" xmlns:xlink="http://www.w3.org/1999/xlink">
    <title>carhartt_wip_text_logo</title>
    <defs>
        <filter color-interpolation-filters="auto" id="filter-1">
            <feColorMatrix in="SourceGraphic" type="matrix" values="0 0 0 0 1.000000 0 0 0 0 1.000000 0 0 0 0 1.000000 0 0 0 1.000000 0"></feColorMatrix>
        </filter>
    </defs>
    <g id="Page-1" stroke="none" stroke-width="1" fill="none" fill-rule="evenodd">
        <g id="Portfolio-1440-v1-Copy" transform="translate(-249.000000, -1742.000000)">
            <g id="Experience" transform="translate(-2.000000, 1609.000000)">
                <g id="Experience-Logos" transform="translate(152.000000, 133.000000)">
                    <g id="carhartt_wip_text_logo" transform="translate(99.541284, 0.159000)" filter="url(#filter-1)">
                        <g>
                            <path d="M46.5577323,41.183711 L43.7343967,49.7234887 L41.875,49.7234887 L39.7399445,42.5610665 L37.604889,49.7234887 L35.8139736,49.7234887 L32.9897712,41.183711 L34.5743759,41.183711 L36.7094313,48.3461332 L38.8444868,41.183711 L40.6354022,41.183711 L42.7704577,48.3461332 L44.9739945,41.183711 L46.5577323,41.183711 Z M58.7491331,45.4535998 C58.7491331,46.8318222 58.1978155,48.002011 57.026699,48.8280776 C55.9934119,49.5856665 54.7538141,49.9306555 53.2385576,49.9306555 C51.723301,49.9306555 50.4837032,49.5171888 49.4504161,48.7595999 C48.2801664,47.8641888 47.7288488,46.7624777 47.7288488,45.3851221 C47.7288488,44.0068998 48.2801664,42.9060555 49.4504161,42.0106444 C50.4837032,41.2530555 51.723301,40.8395888 53.2385576,40.8395888 C54.7538141,40.8395888 55.9934119,41.2530555 56.9573509,42.0097776 C58.1284674,42.9060555 58.7491331,44.0762443 58.7491331,45.4535998 L58.7491331,45.4535998 Z M57.2338766,45.4535998 C57.2338766,44.4203665 56.8203883,43.6636444 55.9249307,43.0438777 C55.1673024,42.4925888 54.2718447,42.2169443 53.1700763,42.2169443 C51.9998266,42.2169443 51.0350208,42.4925888 50.2773925,43.1123555 C49.5197642,43.7321221 49.1756241,44.489711 49.1756241,45.4535998 C49.1756241,46.4183555 49.5197642,47.1759444 50.2765257,47.795711 C51.0350208,48.4154777 51.9989598,48.6911222 53.2385576,48.6911222 C54.4781553,48.6911222 55.4429612,48.4154777 56.1312413,47.795711 C56.8888696,47.1759444 57.2338766,46.4174887 57.2338766,45.4535998 Z M70.8018377,49.7234887 L69.1487517,49.7234887 L66.8065187,46.4868332 L62.5364078,46.4868332 L62.5364078,49.7234887 L61.1589806,49.7234887 L61.1589806,41.183711 L67.9100208,41.183711 C68.8054785,41.183711 69.4937587,41.4593554 70.0450763,41.9412999 C70.5270458,42.4232443 70.8027046,43.0430109 70.8027046,43.8699444 C70.8027046,44.6275332 70.595527,45.1788222 70.1829057,45.5914221 C69.7694175,46.0048888 69.287448,46.2805333 68.598301,46.349011 L70.8027046,49.7234887 L70.8018377,49.7234887 Z M67.6326283,45.1788222 C68.7343967,45.1788222 69.2857143,44.7662223 69.2857143,43.8699444 C69.2857143,42.9069223 68.6659154,42.4934556 67.4947989,42.4934556 L62.5364078,42.4934556 L62.5364078,45.1788222 L67.6326283,45.1788222 Z M82.9923717,49.7234887 L81.1321082,49.7234887 L76.9998266,45.2472999 L74.4512829,47.1065999 L74.4512829,49.7243555 L73.0053745,49.7243555 L73.0053745,41.1828442 L74.4521498,41.1828442 L74.4521498,45.5905553 L80.443828,41.1828442 L82.5095354,41.1828442 L78.1024619,44.4194997 L82.9923717,49.7234887 Z M87.9507628,41.183711 L89.3966713,41.183711 L89.3966713,49.7234887 L87.9507628,49.7234887 L87.9507628,41.183711 Z M101.794383,49.7234887 L100.072816,49.7234887 L93.5298197,42.6988888 L93.5298197,49.7234887 L92.0830444,49.7234887 L92.0830444,41.183711 L93.8739598,41.183711 L100.416956,48.2083109 L100.416956,41.183711 L101.794383,41.183711 L101.794383,49.7234887 Z M114.948856,41.183711 C115.844313,41.183711 116.53346,41.4593554 117.01543,41.9412999 C117.497399,42.4232443 117.773058,43.0430109 117.773058,43.8699444 C117.773058,44.696011 117.497399,45.3851221 116.946082,45.7985888 C116.395631,46.2805333 115.637136,46.4868332 114.605583,46.4868332 L109.508495,46.4868332 L109.508495,49.7234887 L108.06172,49.7234887 L108.06172,41.183711 L114.948856,41.183711 L114.948856,41.183711 Z M114.742545,45.1779554 C115.844313,45.1779554 116.395631,44.7653555 116.395631,43.8690775 C116.395631,42.9060555 115.844313,42.4925888 114.674064,42.4925888 L109.646325,42.4925888 L109.646325,45.1779554 L114.742545,45.1779554 Z M129.137483,49.7234887 L127.484397,49.7234887 L125.142164,46.4868332 L120.803571,46.4868332 L120.803571,49.7234887 L119.356796,49.7234887 L119.356796,41.183711 L126.106969,41.183711 C127.00156,41.183711 127.690707,41.4593554 128.242025,41.9412999 C128.723994,42.4232443 128.999653,43.0430109 128.999653,43.8699444 C128.999653,44.6275332 128.792476,45.1788222 128.379854,45.5914221 C127.966366,46.0048888 127.484397,46.2805333 126.79525,46.349011 L129.137483,49.7234887 L129.137483,49.7234887 Z M125.96914,45.1779554 C127.070042,45.1779554 127.622226,44.7653555 127.622226,43.8690775 C127.622226,42.9060555 127.00156,42.4925888 125.831311,42.4925888 L120.87292,42.4925888 L120.87292,45.1779554 L125.96914,45.1779554 Z M141.878467,45.4535998 C141.878467,46.8318222 141.328017,48.002011 140.1569,48.8280776 C139.123613,49.5856665 137.884015,49.9306555 136.368759,49.9306555 C134.853502,49.9306555 133.613904,49.5171888 132.580617,48.7595999 C131.410368,47.8641888 130.85905,46.7624777 130.85905,45.3851221 C130.85905,44.0068998 131.409501,42.9060555 132.580617,42.0106444 C133.613904,41.2530555 134.853502,40.8395888 136.368759,40.8395888 C137.884015,40.8395888 139.123613,41.2530555 140.087552,42.0097776 C141.32715,42.9060555 141.878467,44.0762443 141.878467,45.4535998 Z M140.432559,45.4535998 C140.432559,44.4203665 140.019071,43.6636444 139.123613,43.0438777 C138.365985,42.4925888 137.470527,42.2169443 136.368759,42.2169443 C135.198509,42.2169443 134.233703,42.4925888 133.476075,43.1123555 C132.718447,43.7321221 132.374307,44.489711 132.374307,45.4535998 C132.374307,46.4183555 132.718447,47.1759444 133.476075,47.795711 C134.233703,48.4154777 135.197642,48.6911222 136.368759,48.6911222 C137.608356,48.6911222 138.572295,48.4154777 139.261442,47.795711 C140.019071,47.1759444 140.431692,46.4174887 140.431692,45.4535998 L140.432559,45.4535998 Z M154.758148,45.3157776 C154.758148,46.694 154.276179,47.8641888 153.242892,48.6911222 C152.278086,49.5171888 150.900659,50 149.316921,50 C147.801664,50 146.562067,49.5856665 145.528779,48.8280776 C144.35853,47.9335333 143.807212,46.8309554 143.807212,45.4535998 C143.807212,44.0762443 144.357663,42.9745332 145.528779,42.0791221 C146.562067,41.3215332 147.801664,40.9089333 149.386269,40.9089333 C151.245666,40.9089333 152.829404,41.5971777 154.00052,42.9745332 L152.691574,43.6636444 C151.796117,42.6988888 150.694348,42.2169443 149.24844,42.2169443 C148.145804,42.2169443 147.250347,42.4925888 146.492718,43.0430109 C145.666609,43.6636444 145.183773,44.489711 145.183773,45.4535998 C145.183773,46.4183555 145.528779,47.1759444 146.286408,47.795711 C147.044036,48.4154777 148.007975,48.6911222 149.179092,48.6911222 C151.038488,48.6911222 152.278086,47.9335333 152.829404,46.4868332 L148.834951,46.4868332 L148.834951,45.1779554 L154.550971,45.1779554 L154.550971,45.3166444 L154.758148,45.3166444 L154.758148,45.3157776 Z M166.879334,49.7234887 L165.226248,49.7234887 L162.884882,46.4868332 L158.54629,46.4868332 L158.54629,49.7234887 L157.099515,49.7234887 L157.099515,41.183711 L163.848821,41.183711 C164.744279,41.183711 165.433426,41.4593554 165.983877,41.9412999 C166.466713,42.4232443 166.741505,43.0430109 166.741505,43.8699444 C166.741505,44.6275332 166.535194,45.1788222 166.121706,45.5914221 C165.709085,46.0048888 165.226248,46.2805333 164.537968,46.349011 L166.879334,49.7234887 L166.879334,49.7234887 Z M163.710992,45.1779554 C164.813627,45.1779554 165.364078,44.7653555 165.364078,43.8690775 C165.364078,42.9060555 164.744279,42.4925888 163.574029,42.4925888 L158.614771,42.4925888 L158.614771,45.1779554 L163.711859,45.1779554 L163.710992,45.1779554 Z M178.036581,49.7234887 L169.083738,49.7234887 L169.083738,41.183711 L177.692441,41.183711 L177.692441,42.4232443 L170.529646,42.4232443 L170.529646,44.6275332 L175.488037,44.6275332 L175.488037,45.9364111 L170.529646,45.9364111 L170.529646,48.4154777 L178.036581,48.4154777 L178.036581,49.7234887 Z M187.26595,43.1808332 C186.026352,42.5610665 184.717406,42.2169443 183.40846,42.2169443 C182.733115,42.2108213 182.060517,42.3036894 181.412101,42.4925888 C180.929265,42.6988888 180.722954,42.9745332 180.722954,43.3186554 C180.722954,43.6636444 180.998613,43.9384221 181.480583,44.1455888 C181.824723,44.2834111 182.444521,44.3518888 183.20215,44.4203665 C184.373266,44.489711 185.130895,44.5590555 185.544383,44.6275332 C186.646151,44.7653555 187.403779,45.0409999 187.885749,45.4535998 C188.376405,45.8608247 188.655197,46.4690968 188.643377,47.1065999 C188.643377,48.002011 188.229889,48.6911222 187.473128,49.2415443 C186.646151,49.7234887 185.544383,49.9991332 184.029126,49.9991332 C181.824723,49.9991332 180.171637,49.5171888 178.932039,48.5532999 L179.689667,47.5200666 C180.998613,48.3461332 182.444521,48.7595999 184.029126,48.7595999 C185.062413,48.7595999 185.820042,48.6217776 186.370492,48.3461332 C186.92181,48.0704887 187.128121,47.7263665 187.128121,47.2444221 C187.128121,46.6931332 186.783981,46.349011 186.094834,46.142711 C185.750693,46.0733665 184.785888,45.9355443 183.133669,45.8670666 C181.755374,45.797722 180.723821,45.5914221 180.171637,45.3157776 C179.483356,44.9716554 179.207698,44.4203665 179.207698,43.6636444 C179.207698,42.836711 179.551838,42.2169443 180.309466,41.7349999 C181.067094,41.2530555 182.100381,41.0458887 183.477809,41.0458887 C185.337205,41.0458887 186.852462,41.4593554 188.09206,42.285422 L187.26595,43.1808332 L187.26595,43.1808332 Z M198.079057,43.1808332 C196.839459,42.5610665 195.530513,42.2169443 194.221567,42.2169443 C193.546222,42.2108213 192.873623,42.3036894 192.225208,42.4925888 C191.742372,42.6988888 191.536061,42.9745332 191.536061,43.3186554 C191.536061,43.6636444 191.81172,43.9384221 192.293689,44.1455888 C192.637829,44.2834111 193.257628,44.3518888 194.015257,44.4203665 C195.186373,44.489711 195.944001,44.5590555 196.35749,44.6275332 C197.458391,44.7653555 198.216886,45.0409999 198.698856,45.4535998 C199.189511,45.8608247 199.468304,46.4690968 199.456484,47.1065999 C199.456484,48.002011 199.042996,48.6911222 198.286234,49.2415443 C197.459258,49.7234887 196.35749,49.9991332 194.842233,49.9991332 C192.637829,49.9991332 190.984743,49.5171888 189.745146,48.5532999 L190.502774,47.5200666 C191.81172,48.3461332 193.257628,48.7595999 194.842233,48.7595999 C195.87552,48.7595999 196.633148,48.6217776 197.183599,48.3461332 C197.734917,48.0704887 197.941227,47.7263665 197.941227,47.2444221 C197.941227,46.6931332 197.597087,46.349011 196.90794,46.142711 C196.5638,46.0733665 195.598994,45.9355443 193.946775,45.8670666 C192.568481,45.797722 191.536928,45.5914221 190.984743,45.3157776 C190.296463,44.9716554 190.020804,44.4203665 190.020804,43.6636444 C190.020804,42.836711 190.364945,42.2169443 191.122573,41.7349999 C191.880201,41.2530555 192.913488,41.0458887 194.290915,41.0458887 C196.150312,41.0458887 197.665569,41.4593554 198.905166,42.285422 L198.079057,43.1808332 L198.079057,43.1808332 Z M228.589632,26.7903888 L229.278779,26.7903888 C229.62292,26.7903888 229.82923,26.9282111 229.82923,27.2029887 C229.82923,27.5479777 229.554438,27.6858 229.071602,27.6858 L228.521151,27.6858 L228.521151,26.7903888 L228.590499,26.7903888 L228.589632,26.7903888 Z M228.039182,29.4757554 L228.521151,29.4757554 L228.521151,28.0983999 L228.865291,28.0983999 L229.760749,29.4766222 L230.380548,29.4766222 L229.48509,28.0983999 C229.898578,28.0290554 230.312067,27.8236222 230.312067,27.2029887 C230.312067,26.5832221 229.96706,26.3084444 229.209431,26.3084444 L228.039182,26.3084444 L228.039182,29.4757554 L228.039182,29.4757554 Z M231.206657,27.8920999 C231.206657,29.1316332 230.242718,30.0955221 229.071602,30.0955221 C227.901352,30.0955221 226.936546,29.1316332 226.936546,27.8920999 C226.936546,26.6525666 227.901352,25.6886778 229.071602,25.6886778 C230.242718,25.6886778 231.206657,26.7210443 231.206657,27.8920999 Z M226.386096,27.8920999 C226.386096,29.3379332 227.556345,30.5783333 229.071602,30.5783333 C230.518377,30.5783333 231.758842,29.4072777 231.758842,27.8920999 C231.758842,26.3769221 230.586859,25.2058665 229.071602,25.2058665 C227.625693,25.2058665 226.386096,26.4453999 226.386096,27.8920999 Z M23.7612691,30.5783333 L8.74739945,30.5783333 C8.74739945,30.7846333 0,29.8207444 0,17.5614999 C0,5.30312224 8.74653259,5.64724442 8.74653259,5.64724442 L23.6919209,5.5778999 C23.6919209,5.5778999 25.4828363,5.71658894 25.4828363,8.05696652 C25.4828363,10.8125444 23.6919209,10.8125444 23.6919209,10.8125444 L9.9176491,10.8125444 C9.9176491,10.8125444 5.78536755,10.6062445 5.85384882,16.8732556 L5.85384882,18.8703778 C5.85384882,18.8703778 6.33581831,24.9995666 10.2617892,25.2752111 L23.7612691,25.2752111 C23.7612691,25.2752111 25.4828363,25.3445556 25.4828363,27.9605776 C25.4828363,30.5783333 23.7612691,30.5783333 23.7612691,30.5783333 Z M33.5410888,10.7431999 L52.7574549,10.7431999 C54.135749,10.7431999 53.790742,11.9827332 53.790742,11.9827332 L53.790742,23.5537333 C53.790742,25.2752111 51.6556865,25.2752111 51.6556865,25.2752111 L37.3968447,25.2752111 C34.2293689,25.2752111 34.2293689,22.3826777 34.2293689,22.3826777 C34.2293689,19.2144999 37.3968447,19.4901444 37.3968447,19.4901444 L50.5521845,19.4901444 C50.5521845,19.4901444 52.2052705,19.4901444 52.2052705,16.9417333 C52.2052705,14.2554999 50.5521845,14.1870222 50.5521845,14.1870222 L34.5050277,14.1870222 C27.0674411,14.2563667 27.0674411,22.3133332 27.0674411,22.3133332 C27.0674411,30.5089888 34.4356796,30.646811 34.4356796,30.646811 L57.1645284,30.646811 C60.332871,30.646811 60.1265603,27.4786332 60.1265603,27.4786332 L60.1265603,10.0558223 C60.1265603,5.37246676 56.0627601,5.64811123 56.0627601,5.64811123 L33.4032594,5.64811123 C33.4032594,5.64811123 31.4060333,5.71745575 31.4060333,8.19652237 C31.4753814,10.8134112 33.5410888,10.7449335 33.5410888,10.7449335 L33.5410888,10.7431999 Z M64.7408114,7.71371115 C64.7408114,7.71371115 64.9471221,5.57876671 67.909154,5.57876671 C70.870319,5.57876671 71.0766297,7.64436662 71.0766297,7.64436662 L71.0766297,28.0299222 C71.0766297,28.0299222 71.0766297,30.5089888 68.0469834,30.5089888 C64.8786408,30.5089888 64.8092926,28.0299222 64.8092926,28.0299222 L64.8092926,7.71371115 L64.7399445,7.71371115 L64.7408114,7.71371115 Z M72.523405,6.88677773 C72.523405,6.7489555 72.6612344,6.68047778 72.6612344,6.68047778 C72.6612344,6.68047778 75.3467406,5.51028899 79.8240291,5.51028899 C84.3004508,5.51028899 89.6038488,6.95612225 89.7408114,13.7735555 C89.7408114,13.7735555 89.6038488,17.3552 88.5705617,18.5947333 C88.5705617,18.5947333 88.5012136,18.7325555 88.4327323,18.7325555 C88.020111,18.663211 84.713939,17.6308444 83.4743412,17.0110778 C83.3356449,16.9417333 83.4049931,16.803911 83.4049931,16.803911 C83.4049931,16.803911 84.713939,13.6357332 82.9230236,11.3629666 C81.2014563,9.15954441 75.0026006,9.71083335 73.7630028,10.3990777 C73.7630028,10.3990777 73.6251734,10.4684222 73.5566921,10.2612555 C73.2810333,9.98561101 72.523405,7.36872215 72.523405,6.88677773 C72.523405,6.88677773 72.523405,7.36872215 72.523405,6.88677773 L72.523405,6.88677773 Z M93.7361304,2.13494444 C93.7361304,2.13494444 93.7361304,0 96.9729542,0 C100.072816,0 100.141297,2.13494444 100.141297,2.13494444 L100.141297,28.3740443 C100.141297,28.3740443 100.071949,30.5783333 96.9729542,30.5783333 C93.7361304,30.5783333 93.7361304,28.3740443 93.7361304,28.3740443 L93.7361304,2.13494444 Z M101.174584,7.29937763 C101.174584,7.29937763 101.105236,7.23089992 101.588072,6.95612225 C101.588072,6.95612225 102.965499,5.92288889 109.025659,5.64724442 C115.156033,5.64724442 121.07923,7.71371115 121.07923,17.2858555 C121.07923,17.2858555 120.596394,24.3104554 118.392857,29.6135777 C118.392857,29.6135777 118.255028,30.3711665 117.35957,30.3711665 L112.194001,30.3711665 C112.194001,30.3711665 110.954404,30.646811 111.436373,29.5450999 C111.918343,28.4433889 114.742545,21.8313888 114.742545,18.1119221 C114.742545,14.5320112 113.709258,10.3990777 106.615811,10.3990777 C106.615811,10.3990777 104.205097,10.3990777 102.48353,11.2260111 C102.48353,11.2260111 101.725902,11.638611 101.588072,10.9503667 C101.380895,10.3306 101.036755,8.19565557 101.174584,7.30024444 C101.174584,7.30024444 101.036755,8.19565557 101.174584,7.30024444 L101.174584,7.29937763 Z M193.534154,2.41058891 C193.534154,2.41058891 193.534154,0 196.35749,0 C199.112344,0 199.180825,2.4097221 199.180825,2.4097221 L199.180825,5.64724442 L206.412968,5.64724442 C206.412968,5.64724442 208.066054,5.71658894 208.066054,8.19565557 C208.066054,10.6747222 206.481449,10.7440667 206.481449,10.7440667 L199.180825,10.7440667 L199.180825,28.0299222 C199.180825,28.0299222 199.111477,30.5783333 196.35749,30.5783333 C193.602635,30.5783333 193.533287,28.0299222 193.533287,28.0299222 L193.533287,10.8125444 L190.434293,10.8125444 C190.434293,10.8125444 188.849688,10.8125444 188.849688,8.19478876 C188.849688,5.64724442 190.364945,5.57876671 190.364945,5.57876671 L193.533287,5.64724442 L193.533287,2.41058891 L193.534154,2.41058891 Z M216.674757,2.41058891 C216.674757,2.41058891 216.674757,0 219.49896,0 C222.253814,0 222.322295,2.4097221 222.322295,2.4097221 L222.322295,5.57876671 L230.242718,5.57876671 C230.242718,5.57876671 232.447122,5.50942219 232.447122,8.19565557 C232.447122,10.7440667 230.312067,10.8125444 230.312067,10.8125444 L222.322295,10.8125444 L222.322295,28.0983999 C222.322295,28.0983999 222.252947,30.646811 219.49896,30.646811 C216.744105,30.646811 216.674757,28.0983999 216.674757,28.0983999 L216.674757,10.8810221 L213.575763,10.8810221 C213.575763,10.8810221 211.991158,10.8116776 211.991158,8.26413328 C211.991158,5.71572214 213.506415,5.64724442 213.506415,5.64724442 L216.674757,5.71658894 L216.674757,2.41058891 Z M160.887656,7.71371115 C160.887656,7.71371115 161.093967,5.57876671 164.055999,5.57876671 C167.017164,5.57876671 167.223474,7.64436662 167.223474,7.64436662 L167.223474,28.0299222 C167.223474,28.0299222 167.223474,30.5089888 164.193828,30.5089888 C161.025485,30.5089888 160.956137,28.0299222 160.956137,28.0299222 L160.956137,7.71371115 L160.886789,7.71371115 L160.887656,7.71371115 Z M168.67025,6.88677773 C168.67025,6.7489555 168.808079,6.68047778 168.808079,6.68047778 C168.808079,6.68047778 171.494452,5.51028899 175.970874,5.51028899 C180.447295,5.51028899 185.750693,6.95612225 185.888523,13.7735555 C185.888523,13.7735555 185.750693,17.3552 184.718273,18.5947333 C184.718273,18.5947333 184.648925,18.7325555 184.579577,18.7325555 C184.166956,18.663211 180.860784,17.6308444 179.621186,17.0110778 C179.483356,16.9417333 179.551838,16.803911 179.551838,16.803911 C179.551838,16.803911 180.860784,13.6357332 179.069868,11.3629666 C177.348301,9.15954441 171.149445,9.71083335 169.909847,10.3990777 C169.909847,10.3990777 169.772018,10.4684222 169.703537,10.2612555 C169.427878,9.98561101 168.67025,7.36872215 168.67025,6.88677773 C168.67025,6.88677773 168.67025,7.36872215 168.67025,6.88677773 L168.67025,6.88677773 Z M129.619452,10.7431999 L148.834951,10.7431999 C150.212379,10.7431999 149.868239,11.9827332 149.868239,11.9827332 L149.868239,23.5537333 C149.868239,25.2752111 147.733183,25.2752111 147.733183,25.2752111 L133.476075,25.2752111 C130.307732,25.2752111 130.307732,22.3826777 130.307732,22.3826777 C130.307732,19.2144999 133.476075,19.4901444 133.476075,19.4901444 L146.630548,19.4901444 C146.630548,19.4901444 148.283634,19.4901444 148.283634,16.9417333 C148.283634,14.2554999 146.630548,14.1870222 146.630548,14.1870222 L130.583391,14.1870222 C123.145804,14.2563667 123.145804,22.3133332 123.145804,22.3133332 C123.145804,30.3711665 130.514043,30.5783333 130.514043,30.5783333 L153.242892,30.5783333 C156.411234,30.5783333 156.273405,27.4101555 156.273405,27.4101555 L156.273405,9.98561101 C156.273405,5.30312224 152.209605,5.57876671 152.209605,5.57876671 L129.550104,5.57876671 C129.550104,5.57876671 127.552878,5.64724442 127.552878,8.12717785 C127.552878,10.8125444 129.619452,10.7431999 129.619452,10.7431999 Z" id="Shape" fill="#000000" fill-rule="nonzero"></path>
                        </g>
                    </g>
                </g>
            </g>
        </g>
    </g>
</svg>